# xmcd CD database file
#
# Track frame offsets:
#	150
#	19524
#	34273
#	48972
#	64295
#	84994
#	101578
#	115084
#	127440
#	147239
#	162188
#	171857
#	179027
#	188933
#	201852
#	214680
#	222891
#	238080
#	253186
#
# Disc length: 3570 seconds
#
# Revision: 0
# Processed by: cddbd v1.5.1PL0 Copyright (c) Steve Scherf et al.
# Submitted via: CDex 1.51
#
DISCID=1f0df013
DTITLE=Bloodshot Records - Finest-Kind Insurgent Country
DYEAR=2003
DGENRE=Country
TTITLE0=Sadies - Empty the Chamber
TTITLE1=Kelly Hogan and Pine Valley Cosmonauts - Green Green Grass of Home
TTITLE2=Trailer Bride - Hope is a Thing With Feathers
TTITLE3=Waco Brothers - Poison
TTITLE4=Bobby Bare Jr - I'll Be Around
TTITLE5=Wayne Hancock - Johnny Law
TTITLE6=Th'Legendary Shack Shakers - Pinetree Boogie
TTITLE7=Jon Langford and the Sadies - Solitaire Song
TTITLE8=Alejandro Escovedo - Velvet Guitar
TTITLE9=Sally Timms and Pine Valley Cosmonauts - Homicide
TTITLE10=Robbie Fulks - Sleeping on the Job of Love
TTITLE11=Jon Rauhouse - Circle the Wagons Babe
TTITLE12=Rex Hobart - Gotta Get Back to Forgetting You
TTITLE13=Ryan Adams - To Be Young (is to be sad, is to be high)
TTITLE14=Split Lip Rayfield - Movin' to Virginia
TTITLE15=The Meat Purveyors - Hey Little Sister
TTITLE16=Asylum Street Spankers - Monkey Rag
TTITLE17=Devil in a Woodpile - I Shall Not Be Moved
TTITLE18=Old 97s - Ray Charles
EXTD=YEAR: 2003
EXTT0=
EXTT1=
EXTT2=
EXTT3=
EXTT4=
EXTT5=
EXTT6=
EXTT7=
EXTT8=
EXTT9=
EXTT10=
EXTT11=
EXTT12=
EXTT13=
EXTT14=
EXTT15=
EXTT16=
EXTT17=
EXTT18=
PLAYORDER=
